# xmcd CD database file
#
# Track frame offsets:
#	150
#	11905
#	27579
#	44037
#	62375
#	76795
#	95917
#	106105
#	123660
#	145760
#	165509
#	168958
#	222875
#	260492
#	287294
#	325538
#
# Disc length: 4666 seconds
#
# Revision: 0
# Processed by: cddbd v1.5.1PL2 Copyright (c) Steve Scherf et al.
# Submitted via: CDex 1.51
#
DISCID=d8123810
DTITLE=Steve Earle - The Alternate Guitar Town
DYEAR=1986
DGENRE=Country
TTITLE0=Guitar Town
TTITLE1=Goodbye's All We've Got Left
TTITLE2=Hillbilly Highway
TTITLE3=Good Ol' Boy (Gettin' Tough)
TTITLE4=My Old Friend The Blues
TTITLE5=Fearless Heart
TTITLE6=Think It Over
TTITLE7=Someday
TTITLE8=Little Rock 'n' Roller (Live)
TTITLE9=Someday
TTITLE10=Vin Scelsa Intro
TTITLE11=Vin Scelsa Interview (1) - I Ain't Ever Satisfied
TTITLE12=Vin Scelsa Interview (2) - Think It Over
TTITLE13=Vin Scelsa Interview (3) - No. 29
TTITLE14=Vin Scelsa Interview (4)
TTITLE15=Vin Scelsa Interview (5) - Angry Young Man
EXTD=YEAR: 1986
EXTT0=
EXTT1=
EXTT2=
EXTT3=
EXTT4=
EXTT5=
EXTT6=
EXTT7=
EXTT8=
EXTT9=
EXTT10=
EXTT11=
EXTT12=
EXTT13=
EXTT14=
EXTT15=
PLAYORDER=
